<svg version="1.1" id="Layer_1" xmlns="http://www.w3.org/2000/svg" xmlns:xlink="http://www.w3.org/1999/xlink" x="0px" y="0px"
	 width="100%" viewBox="0 0 283 280" enable-background="new 0 0 283 280" xml:space="preserve">
<path fill="#F5F5F6" opacity="1.000000" stroke="none" 
	d="
M166.000000,281.000000 
	C110.691017,281.000000 55.882038,281.000000 1.036528,281.000000 
	C1.036528,187.732483 1.036528,94.464943 1.036528,1.098704 
	C95.225548,1.098704 189.451233,1.098704 283.838440,1.098704 
	C283.838440,94.333107 283.838440,187.666534 283.838440,281.000000 
	C244.798447,281.000000 205.649216,281.000000 166.000000,281.000000 
M107.462990,266.087494 
	C127.615257,271.233459 147.938843,272.123840 168.344421,268.000549 
	C255.349915,250.419739 297.645355,158.575134 260.256409,83.888046 
	C235.684540,34.804028 178.996246,1.947772 115.533104,14.983980 
	C47.575314,28.943449 1.186299,94.738884 13.489613,162.642471 
	C23.097300,215.668533 55.591881,249.550156 107.462990,266.087494 
z"/>
<path fill="#6B419F" opacity="1.000000" stroke="none" 
	d="
M107.062180,266.009583 
	C55.591881,249.550156 23.097300,215.668533 13.489613,162.642471 
	C1.186299,94.738884 47.575314,28.943449 115.533104,14.983980 
	C178.996246,1.947772 235.684540,34.804028 260.256409,83.888046 
	C297.645355,158.575134 255.349915,250.419739 168.344421,268.000549 
	C147.938843,272.123840 127.615257,271.233459 107.062180,266.009583 
M156.564926,49.136734 
	C156.446945,74.786797 156.252090,100.437157 156.351166,126.086380 
	C156.359451,128.229675 157.882858,130.830933 159.487518,132.432968 
	C176.816437,149.733566 194.298660,166.880707 211.750244,184.058319 
	C214.836594,187.096237 217.846237,190.230392 221.119064,193.056320 
	C226.085571,197.344650 230.071899,196.752335 233.366119,191.211487 
	C245.563324,170.695984 250.539108,148.421875 246.347244,124.990913 
	C238.401230,80.575554 212.218430,52.105164 168.665878,39.848789 
	C158.984924,37.124416 156.953964,38.592896 156.564926,49.136734 
M40.058514,160.298828 
	C42.523476,171.607254 46.383568,182.334778 52.623325,192.189194 
	C55.002850,195.947159 57.924103,196.486740 61.529018,194.819305 
	C63.139725,194.074265 64.599686,192.839539 65.884911,191.579117 
	C85.986809,171.864960 106.105042,152.166382 126.021851,132.266388 
	C127.759476,130.530243 128.958115,127.414352 128.977036,124.928444 
	C129.163437,100.439163 128.772598,75.943657 129.122086,51.458138 
	C129.323654,37.336769 126.448547,37.282040 114.188171,40.521725 
	C62.353603,54.218540 29.255932,107.109947 40.058514,160.298828 
M205.039413,217.636093 
	C204.118286,216.460876 203.313080,215.168106 202.258560,214.128143 
	C187.783157,199.853012 173.276733,185.609314 158.758301,171.377930 
	C158.236588,170.866516 157.512680,170.561386 156.649826,170.011520 
	C156.424225,170.892700 156.210297,171.336243 156.211700,171.779099 
	C156.276535,192.443192 156.264557,213.108276 156.490128,233.770752 
	C156.576263,241.660843 158.640289,243.310455 166.393402,241.697220 
	C179.440414,238.982483 191.423340,233.554321 202.196533,225.788940 
	C204.079971,224.431351 204.355804,220.843460 205.039413,217.636093 
M129.022583,227.456604 
	C129.022583,208.447372 129.022583,189.438156 129.022583,168.871674 
	C112.514824,185.222321 97.091263,200.355728 81.867043,215.687073 
	C78.397850,219.180679 79.012878,222.939758 83.142387,225.839996 
	C93.739136,233.282288 105.362373,238.569366 118.001419,241.443314 
	C127.103951,243.513107 128.882736,241.946304 128.976547,232.432770 
	C128.989685,231.100861 129.001556,229.768951 129.022583,227.456604 
z"/>
<path fill="#F5F4F6" opacity="1.000000" stroke="none" 
	d="
M156.595642,48.684750 
	C156.953964,38.592896 158.984924,37.124416 168.665878,39.848789 
	C212.218430,52.105164 238.401230,80.575554 246.347244,124.990913 
	C250.539108,148.421875 245.563324,170.695984 233.366119,191.211487 
	C230.071899,196.752335 226.085571,197.344650 221.119064,193.056320 
	C217.846237,190.230392 214.836594,187.096237 211.750244,184.058319 
	C194.298660,166.880707 176.816437,149.733566 159.487518,132.432968 
	C157.882858,130.830933 156.359451,128.229675 156.351166,126.086380 
	C156.252090,100.437157 156.446945,74.786797 156.595642,48.684750 
z"/>
<path fill="#F5F4F6" opacity="1.000000" stroke="none" 
	d="
M39.999992,159.878494 
	C29.255932,107.109947 62.353603,54.218540 114.188171,40.521725 
	C126.448547,37.282040 129.323654,37.336769 129.122086,51.458138 
	C128.772598,75.943657 129.163437,100.439163 128.977036,124.928444 
	C128.958115,127.414352 127.759476,130.530243 126.021851,132.266388 
	C106.105042,152.166382 85.986809,171.864960 65.884911,191.579117 
	C64.599686,192.839539 63.139725,194.074265 61.529018,194.819305 
	C57.924103,196.486740 55.002850,195.947159 52.623325,192.189194 
	C46.383568,182.334778 42.523476,171.607254 39.999992,159.878494 
z"/>
<path fill="#F3F1F6" opacity="1.000000" stroke="none" 
	d="
M205.206757,217.960876 
	C204.355804,220.843460 204.079971,224.431351 202.196533,225.788940 
	C191.423340,233.554321 179.440414,238.982483 166.393402,241.697220 
	C158.640289,243.310455 156.576263,241.660843 156.490128,233.770752 
	C156.264557,213.108276 156.276535,192.443192 156.211700,171.779099 
	C156.210297,171.336243 156.424225,170.892700 156.649826,170.011520 
	C157.512680,170.561386 158.236588,170.866516 158.758301,171.377930 
	C173.276733,185.609314 187.783157,199.853012 202.258560,214.128143 
	C203.313080,215.168106 204.118286,216.460876 205.206757,217.960876 
z"/>
<path fill="#F4F3F6" opacity="1.000000" stroke="none" 
	d="
M129.018295,227.946823 
	C129.001556,229.768951 128.989685,231.100861 128.976547,232.432770 
	C128.882736,241.946304 127.103951,243.513107 118.001419,241.443314 
	C105.362373,238.569366 93.739136,233.282288 83.142387,225.839996 
	C79.012878,222.939758 78.397850,219.180679 81.867043,215.687073 
	C97.091263,200.355728 112.514824,185.222321 129.022583,168.871674 
	C129.022583,189.438156 129.022583,208.447372 129.018295,227.946823 
z"/>
</svg>