<svg id="svg" version="1.1" xmlns="http://www.w3.org/2000/svg" xmlns:xlink="http://www.w3.org/1999/xlink" width="400" height="400" viewBox="0, 0, 400,400"><g id="svgg"><path id="path0" d="M249.630 181.111 L 249.630 211.111 220.556 211.111 L 191.481 211.111 191.481 230.877 L 191.481 250.644 192.870 250.873 C 193.634 251.000,206.550 251.105,221.572 251.107 L 248.885 251.111 248.979 281.019 L 249.074 310.926 269.907 311.022 L 290.741 311.117 290.741 281.114 L 290.741 251.111 319.815 251.111 L 348.889 251.111 348.889 230.926 L 348.889 210.741 319.815 210.741 L 290.741 210.741 290.741 183.202 C 290.741 168.056,290.634 154.640,290.503 153.388 L 290.265 151.111 269.947 151.111 L 249.630 151.111 249.630 181.111 " stroke="none" fill="#04cbb4" fill-rule="evenodd"></path><path id="path1" d="M72.593 199.980 L 72.593 341.111 110.000 341.111 L 147.407 341.111 147.407 296.505 L 147.407 251.899 164.167 251.726 C 184.148 251.518,188.932 251.384,189.504 251.015 C 189.740 250.863,190.198 250.840,190.522 250.964 C 191.056 251.169,191.111 249.301,191.111 230.966 L 191.111 210.741 220.185 210.741 L 249.259 210.741 249.259 180.741 L 249.259 150.741 269.630 150.741 C 288.766 150.741,290.003 150.701,290.045 150.093 C 290.322 146.110,290.284 144.074,289.931 144.074 C 289.660 144.074,289.606 143.406,289.767 142.037 C 289.934 140.613,289.879 140.000,289.582 140.000 C 289.285 140.000,289.229 139.387,289.397 137.963 C 289.563 136.551,289.507 135.926,289.216 135.926 C 288.947 135.926,288.876 135.527,289.019 134.815 C 289.153 134.141,289.087 133.704,288.849 133.704 C 288.616 133.704,288.529 133.181,288.633 132.407 C 288.729 131.694,288.646 131.111,288.448 131.111 C 288.242 131.111,288.193 130.638,288.333 130.000 C 288.645 128.580,288.225 126.576,287.685 126.909 C 287.420 127.073,287.371 126.925,287.542 126.479 C 287.689 126.096,287.620 125.687,287.385 125.542 C 287.155 125.399,286.949 124.678,286.928 123.938 C 286.907 123.198,286.737 122.593,286.550 122.593 C 286.363 122.593,286.290 122.176,286.387 121.667 C 286.484 121.157,286.426 120.741,286.257 120.741 C 286.087 120.741,286.045 120.491,286.162 120.185 C 286.280 119.879,286.173 119.630,285.926 119.630 C 285.678 119.630,285.572 119.380,285.689 119.074 C 285.807 118.769,285.757 118.519,285.579 118.519 C 285.400 118.519,285.349 118.159,285.463 117.720 C 285.615 117.138,285.545 117.000,285.204 117.211 C 284.855 117.426,284.803 117.288,285.000 116.667 C 285.179 116.103,285.133 115.914,284.859 116.084 C 284.604 116.241,284.535 116.120,284.673 115.760 C 284.798 115.435,284.699 115.185,284.444 115.185 C 284.197 115.185,284.091 114.935,284.208 114.630 C 284.325 114.324,284.265 114.074,284.074 114.074 C 283.883 114.074,283.833 113.797,283.963 113.458 C 284.112 113.071,284.053 112.932,283.805 113.085 C 283.588 113.219,283.310 113.066,283.187 112.745 C 282.869 111.918,282.906 111.773,283.364 112.056 C 283.584 112.192,283.497 111.785,283.169 111.152 C 282.842 110.518,282.401 110.000,282.191 110.000 C 281.980 110.000,281.911 109.833,282.037 109.630 C 282.163 109.426,282.080 109.259,281.852 109.259 C 281.624 109.259,281.539 109.095,281.664 108.894 C 281.788 108.693,281.548 108.161,281.130 107.713 C 280.712 107.264,280.390 106.720,280.414 106.504 C 280.511 105.639,280.353 105.152,280.039 105.346 C 279.856 105.459,279.608 105.294,279.487 104.979 C 279.367 104.664,279.421 104.501,279.609 104.617 C 279.796 104.732,279.698 104.323,279.390 103.706 C 279.082 103.089,278.679 102.679,278.494 102.793 C 278.308 102.908,278.266 102.715,278.401 102.366 C 278.565 101.938,278.504 101.817,278.215 101.996 C 277.935 102.169,277.863 102.061,278.007 101.686 C 278.152 101.308,278.016 101.111,277.610 101.111 C 277.271 101.111,277.086 100.962,277.198 100.780 C 277.311 100.597,277.153 100.352,276.846 100.234 C 276.540 100.117,276.320 99.891,276.357 99.733 C 276.483 99.202,275.451 97.428,275.133 97.625 C 274.960 97.732,274.616 97.352,274.368 96.780 C 273.883 95.658,271.844 93.113,271.504 93.204 C 271.390 93.234,271.338 93.109,271.389 92.926 C 271.440 92.743,271.281 92.634,271.035 92.685 C 270.790 92.736,270.582 92.590,270.572 92.360 C 270.550 91.814,264.111 85.375,263.566 85.354 C 263.336 85.344,263.190 85.136,263.241 84.891 C 263.292 84.645,263.083 84.444,262.778 84.444 C 262.472 84.444,262.222 84.278,262.222 84.074 C 262.222 83.870,262.004 83.704,261.736 83.704 C 261.469 83.704,260.877 83.199,260.421 82.582 C 259.965 81.966,259.430 81.561,259.231 81.684 C 259.033 81.807,258.916 81.696,258.972 81.438 C 259.028 81.181,258.741 80.900,258.333 80.814 C 257.926 80.728,257.459 80.427,257.296 80.144 C 257.134 79.861,256.767 79.630,256.481 79.630 C 256.196 79.630,255.829 79.393,255.667 79.104 C 255.504 78.815,255.134 78.523,254.846 78.456 C 254.557 78.388,254.027 78.083,253.669 77.778 C 251.973 76.334,251.679 76.124,251.595 76.296 C 251.546 76.398,251.208 76.231,250.845 75.926 C 250.482 75.620,250.019 75.363,249.815 75.354 C 249.178 75.326,247.407 74.341,247.407 74.015 C 247.407 73.844,247.092 73.704,246.706 73.704 C 246.321 73.704,245.906 73.446,245.785 73.131 C 245.664 72.816,245.355 72.592,245.098 72.635 C 244.475 72.737,242.727 71.998,242.422 71.504 C 242.288 71.288,241.762 71.111,241.253 71.111 C 240.730 71.111,240.426 70.950,240.556 70.741 C 240.745 70.434,239.835 70.180,239.537 70.456 C 239.486 70.503,239.032 70.253,238.529 69.901 C 238.025 69.548,237.316 69.259,236.953 69.259 C 236.590 69.259,235.672 68.926,234.912 68.519 C 234.151 68.111,233.263 67.778,232.938 67.778 C 232.612 67.778,232.230 67.662,232.088 67.520 C 231.946 67.378,231.627 67.231,231.378 67.193 C 231.129 67.154,230.176 66.918,229.259 66.667 C 228.343 66.416,227.426 66.183,227.222 66.150 C 227.019 66.117,226.654 65.967,226.412 65.815 C 226.170 65.664,225.253 65.441,224.375 65.319 C 223.496 65.198,222.694 64.985,222.593 64.846 C 222.491 64.708,221.871 64.558,221.215 64.514 C 220.558 64.470,219.558 64.241,218.992 64.004 C 218.426 63.768,217.597 63.531,217.150 63.477 C 216.702 63.424,216.036 63.231,215.668 63.049 C 215.301 62.866,214.410 62.686,213.688 62.648 C 212.967 62.611,211.967 62.484,211.466 62.366 C 210.965 62.249,210.264 62.158,209.907 62.164 C 209.551 62.171,209.259 62.040,209.259 61.874 C 209.259 61.708,208.759 61.615,208.148 61.667 C 207.537 61.719,207.037 61.625,207.037 61.457 C 207.037 61.290,206.728 61.213,206.351 61.286 C 205.974 61.358,203.266 61.086,200.333 60.681 C 197.400 60.275,194.333 59.943,193.519 59.943 C 192.704 59.943,191.787 59.855,191.481 59.747 C 190.102 59.259,181.944 59.163,128.981 59.011 L 72.593 58.848 72.593 199.980 M179.444 118.345 C 184.274 118.627,186.088 118.831,189.259 119.446 C 191.054 119.794,191.651 119.931,191.759 120.018 C 191.810 120.059,192.019 120.134,192.222 120.185 C 192.426 120.236,192.718 120.318,192.870 120.368 C 193.023 120.418,193.291 120.433,193.465 120.401 C 193.639 120.370,193.972 120.498,194.206 120.686 C 194.439 120.874,195.338 121.144,196.204 121.287 C 197.069 121.430,197.778 121.716,197.778 121.924 C 197.778 122.132,198.028 122.206,198.333 122.088 C 198.639 121.971,198.889 122.046,198.889 122.256 C 198.889 122.465,199.056 122.533,199.259 122.407 C 199.463 122.282,199.630 122.373,199.630 122.610 C 199.630 122.848,199.867 122.951,200.158 122.839 C 200.449 122.728,200.886 122.877,201.129 123.170 C 201.373 123.464,201.769 123.704,202.009 123.704 C 202.250 123.704,203.181 124.243,204.077 124.903 C 204.974 125.563,205.561 125.863,205.380 125.571 C 205.199 125.279,205.578 125.415,206.222 125.873 C 206.866 126.332,207.526 126.945,207.689 127.235 C 207.851 127.525,208.553 128.183,209.249 128.696 C 209.945 129.210,210.386 129.630,210.229 129.630 C 210.072 129.630,210.456 130.061,211.084 130.589 C 211.711 131.117,212.131 131.700,212.016 131.886 C 211.902 132.071,211.985 132.222,212.200 132.222 C 212.416 132.222,212.593 132.446,212.593 132.720 C 212.593 132.994,212.908 133.504,213.294 133.854 C 213.680 134.203,214.080 134.854,214.183 135.300 C 214.286 135.746,214.708 136.991,215.120 138.066 C 215.532 139.141,215.871 140.058,215.872 140.103 C 215.873 140.148,216.045 140.635,216.254 141.185 C 216.463 141.735,216.726 142.902,216.838 143.778 C 216.951 144.654,217.150 146.204,217.282 147.222 C 217.734 150.727,217.522 159.515,216.977 159.852 C 216.800 159.962,216.739 160.187,216.841 160.353 C 217.001 160.611,216.771 162.254,216.141 165.370 C 216.059 165.778,215.814 166.569,215.598 167.130 C 215.381 167.690,215.303 168.148,215.425 168.148 C 215.547 168.148,215.439 168.398,215.185 168.704 C 214.932 169.009,214.861 169.259,215.029 169.259 C 215.196 169.259,215.133 169.459,214.889 169.704 C 214.644 169.948,214.444 170.448,214.444 170.815 C 214.444 171.181,214.268 171.481,214.052 171.481 C 213.836 171.481,213.754 171.634,213.869 171.820 C 213.984 172.007,213.953 172.215,213.799 172.283 C 213.645 172.352,213.050 173.324,212.477 174.444 C 211.234 176.874,210.795 177.600,209.815 178.847 C 208.569 180.432,205.175 183.704,204.776 183.704 C 204.570 183.704,204.486 183.842,204.590 184.010 C 204.695 184.179,204.119 184.609,203.312 184.965 C 202.504 185.321,201.924 185.742,202.021 185.900 C 202.204 186.196,200.406 187.218,199.907 187.102 C 199.755 187.066,199.630 187.204,199.630 187.407 C 199.630 187.611,199.203 187.778,198.682 187.778 C 198.144 187.778,197.833 187.938,197.963 188.148 C 198.093 188.358,197.782 188.519,197.244 188.519 C 196.723 188.519,196.296 188.685,196.296 188.889 C 196.296 189.093,195.973 189.259,195.577 189.259 C 195.182 189.259,194.749 189.437,194.614 189.655 C 194.480 189.872,194.142 189.963,193.863 189.856 C 193.585 189.749,193.256 189.826,193.132 190.026 C 193.008 190.226,192.711 190.359,192.472 190.321 C 192.233 190.283,191.592 190.436,191.047 190.661 C 190.503 190.887,189.420 191.148,188.640 191.242 C 187.860 191.337,186.948 191.524,186.613 191.658 C 185.441 192.126,181.911 192.255,164.722 192.456 L 147.407 192.658 147.407 155.408 L 147.407 118.158 160.278 118.060 C 167.356 118.007,173.898 118.010,174.815 118.067 C 175.731 118.124,177.815 118.249,179.444 118.345 " stroke="none" fill="#141c44" fill-rule="evenodd"></path><path id="path2" d="M259.563 151.018 C 265.332 151.076,274.666 151.076,280.304 151.018 C 285.942 150.961,281.222 150.914,269.815 150.914 C 258.407 150.914,253.794 150.961,259.563 151.018 M191.200 230.833 L 191.290 250.926 191.389 231.021 L 191.488 211.116 220.466 211.018 L 249.444 210.921 220.278 210.831 L 191.111 210.741 191.200 230.833 " stroke="none" fill="#0c445c" fill-rule="evenodd"></path><path id="path3" d="M290.476 152.407 C 290.479 153.426,290.551 153.799,290.636 153.236 C 290.721 152.673,290.719 151.839,290.631 151.384 C 290.543 150.928,290.474 151.389,290.476 152.407 M249.436 181.111 C 249.436 197.713,249.481 204.505,249.537 196.204 C 249.592 187.903,249.592 174.319,249.537 166.019 C 249.481 157.718,249.436 164.509,249.436 181.111 M191.574 250.996 C 191.931 251.089,192.514 251.089,192.870 250.996 C 193.227 250.903,192.935 250.827,192.222 250.827 C 191.509 250.827,191.218 250.903,191.574 250.996 " stroke="none" fill="#04bcac" fill-rule="evenodd"></path><path id="path4" d="M184.475 59.022 C 184.560 59.095,185.130 59.267,185.741 59.404 C 186.552 59.585,186.702 59.551,186.296 59.276 C 185.796 58.938,184.104 58.701,184.475 59.022 M188.981 59.515 C 189.338 59.608,189.921 59.608,190.278 59.515 C 190.634 59.421,190.343 59.345,189.630 59.345 C 188.917 59.345,188.625 59.421,188.981 59.515 M194.881 59.807 C 195.145 60.084,205.644 61.516,205.856 61.304 C 206.040 61.120,204.286 60.822,200.370 60.370 C 198.435 60.147,196.352 59.870,195.741 59.754 C 195.130 59.638,194.743 59.662,194.881 59.807 M218.529 63.836 C 218.637 63.944,219.449 64.196,220.333 64.395 C 221.218 64.594,221.796 64.623,221.619 64.460 C 221.263 64.134,218.215 63.517,218.529 63.836 M222.593 64.824 C 222.593 64.976,223.084 65.173,223.684 65.261 C 224.284 65.349,224.704 65.305,224.616 65.162 C 224.387 64.792,222.593 64.492,222.593 64.824 M235.349 68.683 C 235.744 69.000,236.327 69.246,236.645 69.230 C 237.144 69.205,237.147 69.173,236.667 68.995 C 236.361 68.881,235.778 68.635,235.370 68.448 C 234.641 68.113,234.641 68.117,235.349 68.683 M247.410 73.994 C 247.413 74.323,249.673 75.635,249.881 75.428 C 249.964 75.345,249.441 74.929,248.720 74.503 C 247.998 74.077,247.408 73.848,247.410 73.994 M260.741 82.963 C 260.959 83.370,261.324 83.704,261.552 83.704 C 261.780 83.704,261.665 83.370,261.296 82.963 C 260.928 82.556,260.563 82.222,260.485 82.222 C 260.408 82.222,260.523 82.556,260.741 82.963 M270.928 92.965 C 271.298 93.374,271.677 93.632,271.770 93.538 C 271.971 93.338,270.915 92.222,270.525 92.222 C 270.377 92.222,270.558 92.557,270.928 92.965 M274.086 96.133 C 274.079 96.349,274.319 96.849,274.618 97.244 C 274.917 97.639,275.167 97.786,275.173 97.571 C 275.180 97.355,274.940 96.855,274.641 96.460 C 274.342 96.064,274.092 95.917,274.086 96.133 M280.617 107.042 C 280.977 107.650,281.398 108.148,281.553 108.148 C 282.010 108.148,281.060 106.356,280.487 106.136 C 280.088 105.983,280.119 106.198,280.617 107.042 M286.296 121.830 C 286.296 122.249,286.463 122.593,286.667 122.593 C 286.870 122.593,287.037 122.352,287.037 122.059 C 287.037 121.765,286.870 121.422,286.667 121.296 C 286.463 121.170,286.296 121.411,286.296 121.830 M286.812 123.919 C 286.936 124.241,287.037 124.741,287.037 125.030 C 287.037 125.319,287.175 125.556,287.343 125.556 C 287.512 125.556,287.576 125.056,287.486 124.444 C 287.397 123.833,287.158 123.333,286.955 123.333 C 286.753 123.333,286.689 123.597,286.812 123.919 M206.088 126.233 C 206.686 126.879,207.321 127.407,207.499 127.407 C 208.024 127.407,207.469 126.759,206.193 125.880 L 205.000 125.059 206.088 126.233 M210.960 130.926 C 211.294 131.435,211.743 131.852,211.959 131.852 C 212.175 131.852,211.960 131.435,211.481 130.926 C 211.003 130.417,210.553 130.000,210.482 130.000 C 210.411 130.000,210.626 130.417,210.960 130.926 M288.519 132.963 C 288.519 133.370,288.675 133.704,288.866 133.704 C 289.057 133.704,289.188 133.370,289.157 132.963 C 289.127 132.556,288.970 132.222,288.810 132.222 C 288.650 132.222,288.519 132.556,288.519 132.963 M212.797 133.796 C 212.932 134.153,213.163 134.444,213.311 134.444 C 213.459 134.444,213.588 134.653,213.598 134.907 C 213.607 135.162,213.981 136.120,214.427 137.037 C 215.274 138.774,215.236 138.231,214.343 135.813 C 214.057 135.039,213.537 134.122,213.188 133.776 C 212.590 133.186,212.567 133.187,212.797 133.796 M289.285 138.611 C 289.271 139.375,289.426 140.000,289.630 140.000 C 290.072 140.000,290.072 138.992,289.630 137.963 C 289.374 137.369,289.306 137.497,289.285 138.611 M215.763 141.181 C 215.904 141.626,216.234 143.168,216.495 144.607 C 216.848 146.551,217.357 147.619,217.083 145.839 C 217.060 145.689,216.949 144.806,216.838 143.877 C 216.620 142.066,216.082 140.370,215.725 140.370 C 215.604 140.370,215.621 140.735,215.763 141.181 M289.656 142.685 C 289.641 143.449,289.796 144.074,290.000 144.074 C 290.442 144.074,290.442 143.066,290.000 142.037 C 289.745 141.443,289.677 141.571,289.656 142.685 M217.081 152.932 C 217.057 156.073,217.117 158.562,217.215 158.464 C 217.521 158.158,217.670 149.505,217.390 148.333 C 217.242 147.713,217.105 149.745,217.081 152.932 M290.006 149.907 C 290.003 150.366,290.167 150.741,290.370 150.741 C 290.834 150.741,290.834 150.348,290.370 149.630 C 290.080 149.180,290.010 149.234,290.006 149.907 M216.531 161.160 C 215.571 166.072,215.058 167.946,213.887 170.833 C 213.731 171.219,213.791 171.481,214.034 171.481 C 214.260 171.481,214.444 171.181,214.444 170.815 C 214.444 170.448,214.644 169.948,214.889 169.704 C 215.133 169.459,215.196 169.259,215.029 169.259 C 214.861 169.259,214.932 169.009,215.185 168.704 C 215.439 168.398,215.547 168.148,215.425 168.148 C 215.303 168.148,215.381 167.690,215.598 167.130 C 215.814 166.569,216.059 165.778,216.141 165.370 C 216.747 162.377,217.011 160.591,216.869 160.449 C 216.777 160.358,216.626 160.678,216.531 161.160 M210.832 176.575 C 210.237 177.543,209.056 179.137,208.208 180.116 C 206.400 182.205,206.112 183.027,207.872 181.074 C 210.004 178.710,210.741 177.779,210.741 177.450 C 210.741 177.273,210.973 176.935,211.256 176.700 C 211.715 176.319,212.336 174.815,212.034 174.815 C 211.969 174.815,211.428 175.607,210.832 176.575 M200.583 186.489 C 199.503 187.306,200.031 187.401,201.296 186.618 C 201.907 186.240,202.157 185.934,201.852 185.940 C 201.546 185.945,200.975 186.192,200.583 186.489 M189.630 190.741 C 188.885 190.979,188.849 191.039,189.444 191.048 C 189.852 191.054,190.519 190.916,190.926 190.741 C 191.870 190.335,190.896 190.335,189.630 190.741 M174.722 192.484 C 175.181 192.572,175.931 192.572,176.389 192.484 C 176.847 192.395,176.472 192.323,175.556 192.323 C 174.639 192.323,174.264 192.395,174.722 192.484 " stroke="none" fill="#141c3c" fill-rule="evenodd"></path></g></svg>